#!OML:ASF I:\golf\golf\golf 2\Subject 1\2002-09-07\Subject1.ASF
:FULLY-SPECIFIED
:DEGREES
270
root 2.01099 10.9387 -3.97826 15.9096 -5.80092 -4.33197
lowerback 41.2203 8.35329 3.03143
upperback 16.012 11.2571 6.20889
thorax -2.39264 5.14133 0.952866
lowerneck -10.1608 -6.58482 -0.388956
upperneck 22.5398 -6.70212 -9.48798
head 8.3395 -4.00393 -3.76326
rclavicle 3.18055e-015 3.10104e-014
rhumerus 31.0031 -3.12191 -74.8172
rradius 31.2582
rwrist -15.5324
rhand -41.0051 30.3426
rfingers 7.12502
rthumb -13.9366 0.829694
lclavicle 3.18055e-015 3.10104e-014
lhumerus -27.2505 -42.9926 92.3446
lradius 104.287
lwrist -10.9161
lhand -40.9697 8.62524
lfingers 7.12502
lthumb -13.9024 38.1405
rfemur -94.4527 -50.3374 43.6843
rtibia 131.85
rfoot -27.2828 8.59805
rtoes -10.3773
lfemur -97.6437 14.0309 -25.4819
ltibia 119.05
lfoot -28.5375 -9.36278
ltoes -9.66562
271
root 2.0097 10.8943 -3.95942 15.6411 -5.85159 -4.3448
lowerback 41.4005 8.41347 2.95687
upperback 16.0703 11.3037 6.2608
thorax -2.40357 5.15479 1.01619
lowerneck -10.2496 -6.59777 -0.455159
upperneck 22.7268 -6.7073 -9.41542
head 8.42505 -4.00715 -3.7418
rclavicle -9.54166e-014 1.03368e-014
rhumerus 30.8478 -3.18468 -74.9439
rradius 31.5186
rwrist -15.3553
rhand -40.9947 30.8296
rfingers 7.12502
rthumb -13.9265 1.31596
lclavicle -9.54166e-014 1.03368e-014
lhumerus -27.4452 -43.1873 92.3741
lradius 104.367
lwrist -11.3562
lhand -41.3703 8.62269
lfingers 7.12502
lthumb -14.2885 38.1111
rfemur -94.3289 -51.0632 43.4516
rtibia 132.267
rfoot -27.4453 9.20145
rtoes -10.269
lfemur -97.587 14.3882 -25.3753
ltibia 119.633
lfoot -28.7876 -9.85728
ltoes -9.93736
272
root 2.01312 10.8351 -3.95256 15.5834 -5.81212 -4.50965
lowerback 41.4113 8.44844 3.1029
upperback 16.0999 11.4009 6.34274
thorax -2.36834 5.20376 0.997686
lowerneck -10.4175 -6.67273 -0.384002
upperneck 22.9187 -6.80453 -9.42802
head 8.51196 -4.05139 -3.78292
rclavicle 8.5875e-014 -4.77083e-015
rhumerus 30.6473 -3.49047 -75.0562
rradius 31.7884
rwrist -14.9043
rhand -41.0301 31.1643
rfingers 7.12502
rthumb -13.9606 1.65301
lclavicle 8.5875e-014 -4.77083e-015
lhumerus -27.4724 -43.5708 92.3451
lradius 104.54
lwrist -11.5999
lhand -41.7425 8.59099
lfingers 7.12502
lthumb -14.647 38.0537
rfemur -94.8007 -51.5579 43.7273
rtibia 132.772
rfoot -27.3465 9.72205
rtoes -10.1864
lfemur -98.039 14.6214 -25.2252
ltibia 120.215
lfoot -28.7538 -10.3275
ltoes -10.5854
273
root 2.01547 10.782 -3.94856 15.4881 -5.81792 -4.63608
lowerback 41.2918 8.38805 3.24181
upperback 16.1619 11.3721 6.36203
thorax -2.24556 5.2 0.977796
lowerneck -10.045 -6.69064 -0.454608
upperneck 22.788 -6.84136 -9.3804
head 8.40196 -4.0613 -3.73493
rclavicle 1.01778e-013 -7.31528e-014
rhumerus 30.3633 -3.4802 -75.1673
rradius 32.0673
rwrist -14.5257
rhand -41.0757 31.4122
rfingers 7.12502
rthumb -14.0046 1.90396
lclavicle 1.01778e-013 -7.31528e-014
lhumerus -27.5328 -43.6952 92.2741
lradius 104.731
lwrist -11.7329
lhand -42.16 8.52954
lfingers 7.12502
lthumb -15.0492 37.9626
rfemur -95.1405 -51.9578 43.8833
rtibia 133.211
rfoot -27.2117 10.0375
rtoes -10.3906
lfemur -98.4421 14.8646 -25.102
ltibia 120.763
lfoot -28.6019 -10.9027
ltoes -10.6825
274
root 2.01612 10.7379 -3.9397 15.2895 -5.84795 -4.62868
lowerback 41.4214 8.40269 3.19333
upperback 16.1868 11.3749 6.38878
thorax -2.26898 5.19543 1.01948
lowerneck -10.0748 -6.68156 -0.42099
upperneck 22.8841 -6.81232 -9.45336
head 8.43698 -4.05324 -3.76803
rclavicle -4.13472e-014 1.35174e-014
rhumerus 29.9291 -3.16876 -74.9666
rradius 32.6599
rwrist -14.6968
rhand -41.1029 31.4937
rfingers 7.12502
rthumb -14.0308 1.98729
lclavicle -4.13472e-014 1.35174e-014
lhumerus -27.651 -43.822 92.2673
lradius 104.947
lwrist -11.7086
lhand -42.7414 8.41056
lfingers 7.12502
lthumb -15.6093 37.8008
rfemur -95.257 -52.5107 43.7273
rtibia 133.617
rfoot -27.1559 10.4608
rtoes -10.439
lfemur -98.6345 15.1088 -25.0968
ltibia 121.299
lfoot -28.5799 -11.2708
ltoes -10.8785
275
root 2.01672 10.6963 -3.93013 15.0572 -5.83421 -4.65088
lowerback 41.606 8.38029 3.20933
upperback 16.2109 11.3582 6.4161
thorax -2.29756 5.18338 1.03448
lowerneck -10.1356 -6.65908 -0.347251
upperneck 22.9516 -6.7659 -9.56497
head 8.46547 -4.03831 -3.81917
rclavicle 4.13472e-014 3.33958e-014
rhumerus 29.3937 -2.62531 -74.5228
rradius 33.5976
rwrist -15.2193
rhand -41.2052 31.1885
rfingers 7.12502
rthumb -14.1294 1.68889
lclavicle 4.13472e-014 3.33958e-014
lhumerus -27.7916 -43.9462 92.2386
lradius 105.192
lwrist -11.6851
lhand -42.8032 8.4738
lfingers 7.12502
lthumb -15.6688 37.8593
rfemur -95.2293 -53.1213 43.5176
rtibia 133.993
rfoot -27.1991 11.014
rtoes -10.3309
lfemur -98.7439 15.3455 -25.0758
ltibia 121.772
lfoot -28.5876 -11.4727
ltoes -11.6402
276
root 2.01218 10.663 -3.91693 14.8043 -5.86045 -4.71409
lowerback 41.7413 8.42627 3.21219
upperback 16.2402 11.4183 6.46917
thorax -2.31502 5.20716 1.05815
lowerneck -9.96794 -6.68036 -0.282963
upperneck 22.8931 -6.80327 -9.61785
head 8.40702 -4.05178 -3.8395
rclavicle 4.77083e-014 9.54166e-015
rhumerus 28.9574 -2.52058 -74.4026
rradius 34.2479
rwrist -15.4078
rhand -41.1776 31.0563
rfingers 7.12502
rthumb -14.1027 1.55486
lclavicle 4.77083e-014 9.54166e-015
lhumerus -27.9063 -44.1804 92.1986
lradius 105.436
lwrist -11.6009
lhand -42.2527 8.88407
lfingers 7.12502
lthumb -15.1386 38.3104
rfemur -94.9677 -53.7245 43.3284
rtibia 134.276
rfoot -27.4137 11.4195
rtoes -10.5099
lfemur -98.7194 15.7042 -24.9871
ltibia 122.176
lfoot -28.6045 -11.7864
ltoes -12.2247
277
root 2.003 10.6322 -3.90336 14.6382 -5.95556 -4.72876
lowerback 41.7866 8.56799 3.03522
upperback 16.2447 11.5285 6.53371
thorax -2.36913 5.24662 1.16326
lowerneck -9.83522 -6.69578 -0.250523
upperneck 22.8906 -6.82805 -9.64136
head 8.37754 -4.06012 -3.84813
rclavicle 2.54444e-014 1.90833e-014
rhumerus 28.6271 -2.58953 -74.5038
rradius 34.5825
rwrist -15.2107
rhand -41.1481 31.2576
rfingers 7.12502
rthumb -14.0743 1.75415
lclavicle 2.54444e-014 1.90833e-014
lhumerus -28.013 -44.3809 92.2117
lradius 105.537
lwrist -11.5499
lhand -42.0738 9.23072
lfingers 7.12502
lthumb -14.9663 38.6699
rfemur -94.8996 -54.2499 43.3077
rtibia 134.554
rfoot -27.702 11.4839
rtoes -11.5786
lfemur -98.7768 16.0903 -24.9416
ltibia 122.595
lfoot -28.6846 -12.0599
ltoes -12.9374
278
root 2.00157 10.5907 -3.89685 14.6152 -5.97043 -4.76956
lowerback 41.7517 8.61373 2.97415
upperback 16.2216 11.5666 6.57689
thorax -2.40615 5.25943 1.2218
lowerneck -9.87399 -6.66752 -0.175546
upperneck 23.0187 -6.7723 -9.74089
head 8.42339 -4.03925 -3.89657
rclavicle 5.40694e-014 5.08889e-014
rhumerus 28.254 -2.53248 -74.5552
rradius 35.061
rwrist -14.8168
rhand -41.3608 31.2969
rfingers 7.12502
rthumb -14.2793 1.80783
lclavicle 5.40694e-014 5.08889e-014
lhumerus -28.1304 -44.4688 92.2633
lradius 105.568
lwrist -11.5585
lhand -42.2489 9.34045
lfingers 7.12502
lthumb -15.135 38.767
rfemur -95.3499 -54.6566 43.5772
rtibia 134.924
rfoot -27.8058 11.4354
rtoes -12.7971
lfemur -99.1247 16.2626 -24.9297
ltibia 123.079
lfoot -28.7174 -12.1366
ltoes -13.812
279
root 2.01031 10.5479 -3.88846 14.6167 -5.86709 -4.78437
lowerback 41.6145 8.5237 3.15014
upperback 16.223 11.5238 6.5813
thorax -2.33606 5.25178 1.16991
lowerneck -9.80856 -6.67725 -0.0962992
upperneck 23.0664 -6.78516 -9.80182
head 8.42014 -4.04331 -3.92982
rclavicle -7.95139e-014 -4.21423e-014
rhumerus 27.8833 -1.75437 -73.7853
rradius 35.3204
rwrist -15.4158
rhand -41.9887 31.414
rfingers 7.12502
rthumb -14.8843 1.96867
lclavicle -7.95139e-014 -4.21423e-014
lhumerus -28.1418 -44.6269 92.2427
lradius 105.583
lwrist -11.4994
lhand -42.4007 9.28463
lfingers 7.12502
lthumb -15.2811 38.7001
rfemur -95.955 -55.214 43.8546
rtibia 135.301
rfoot -27.7374 11.7199
rtoes -13.0769
lfemur -99.4992 16.1766 -25.0016
ltibia 123.531
lfoot -28.711 -11.9167
ltoes -14.7522
280
root 2.01513 10.5122 -3.87775 14.5732 -5.82296 -4.77494
lowerback 41.4521 8.45001 3.24021
upperback 16.2615 11.4633 6.57069
thorax -2.22842 5.2339 1.15506
lowerneck -9.61001 -6.68042 -0.162524
upperneck 22.9186 -6.81 -9.71427
head 8.33876 -4.04718 -3.87548
rclavicle 7.31528e-014 -7.4743e-014
rhumerus 27.5708 -1.43648 -73.5837
rradius 35.6693
rwrist -15.4962
rhand -42.3116 31.4944
rfingers 7.12502
rthumb -15.1953 2.07233
lclavicle 7.31528e-014 -7.4743e-014
lhumerus -28.1141 -44.7088 92.1686
lradius 105.61
lwrist -11.4326
lhand -42.4966 9.18789
lfingers 7.12502
lthumb -15.3736 38.5963
rfemur -96.2433 -55.6503 43.8891
rtibia 135.604
rfoot -27.6953 12.0786
rtoes -12.9788
lfemur -99.8003 16.1722 -25.1285
ltibia 123.941
lfoot -28.7083 -11.7037
ltoes -15.6949
281
root 2.01297 10.4783 -3.86847 14.5201 -5.83231 -4.85042
lowerback 41.3252 8.43241 3.2312
upperback 16.3018 11.4353 6.59381
thorax -2.15384 5.2227 1.20648
lowerneck -9.55006 -6.63721 -0.255169
upperneck 22.8507 -6.75572 -9.63987
head 8.31549 -4.02132 -3.8253
rclavicle 1.145e-013 -7.95139e-016
rhumerus 27.4301 -1.38601 -73.7566
rradius 35.8676
rwrist -15.2513
rhand -42.5655 31.642
rfingers 7.12502
rthumb -15.4399 2.23869
lclavicle 1.145e-013 -7.95139e-016
lhumerus -28.146 -44.6646 92.1535
lradius 105.658
lwrist -11.4351
lhand -42.6664 9.29592
lfingers 7.12502
lthumb -15.5371 38.6917
rfemur -96.3326 -55.8992 43.9031
rtibia 135.883
rfoot -27.7164 12.3743
rtoes -12.6135
lfemur -100.129 16.3451 -25.1552
ltibia 124.336
lfoot -28.6027 -11.7591
ltoes -16.343
282
root 2.00713 10.454 -3.85281 14.3451 -5.88071 -4.86477
lowerback 41.3507 8.50608 3.13029
upperback 16.3455 11.4879 6.64255
thorax -2.14165 5.24106 1.28671
lowerneck -9.69013 -6.63247 -0.201791
upperneck 23.0515 -6.72953 -9.69933
head 8.40574 -4.01436 -3.86764
rclavicle -9.22361e-014 3.65764e-014
rhumerus 27.2913 -1.56461 -73.9856
rradius 35.9683
rwrist -14.8731
rhand -42.917 31.7808
rfingers 7.12502
rthumb -15.7784 2.40385
lclavicle -9.22361e-014 3.65764e-014
lhumerus -28.0683 -44.7423 92.0904
lradius 105.685
lwrist -11.3666
lhand -42.6911 9.44855
lfingers 7.12502
lthumb -15.5609 38.8425
rfemur -96.1438 -56.4516 43.7553
rtibia 136.118
rfoot -27.899 12.7504
rtoes -12.1873
lfemur -100.115 16.599 -25.1546
ltibia 124.648
lfoot -28.5731 -11.8751
ltoes -16.7753
